<?xml version="1.0" encoding="utf-8"?>
<!-- Generator: Adobe Illustrator 23.1.0, SVG Export Plug-In . SVG Version: 6.00 Build 0)  -->
<svg version="1.1" id="Capa_1" xmlns="http://www.w3.org/2000/svg" xmlns:xlink="http://www.w3.org/1999/xlink" x="0px" y="0px"
	 viewBox="0 0 1200 1200" enable-background="new 0 0 1200 1200" xml:space="preserve">
<g>
	<path opacity="0.9" fill="#2D2D2D" d="M1116.267,519.991c-8.785-14.275-17.065-27.739-20.073-38.972
		c-3.257-12.186-2.844-28.568-2.411-45.921c0.738-29.701,1.584-63.345-15.769-93.354c-17.569-30.367-47.361-46.478-73.643-60.699
		c-15.067-8.153-29.287-15.858-37.893-24.464c-8.604-8.604-16.309-22.824-24.445-37.874c-14.239-26.299-30.368-56.11-60.754-73.679
		c-29.971-17.335-63.598-16.524-93.335-15.75c-17.371,0.414-33.769,0.863-45.903-2.412c-11.231-2.988-24.696-11.286-38.953-20.071
		c-25.686-15.824-54.813-33.752-90.689-33.752c-35.84,0-64.965,17.928-90.653,33.733c-14.257,8.785-27.739,17.084-38.955,20.071
		c-12.186,3.26-28.639,2.81-45.921,2.414c-29.629-0.793-63.345-1.585-93.352,15.767c-30.368,17.588-46.497,47.38-60.718,73.662
		c-8.155,15.067-15.858,29.27-24.445,37.874c-8.604,8.604-22.825,16.309-37.893,24.445c-26.281,14.239-56.091,30.368-73.679,60.754
		c-17.335,29.99-16.488,63.634-15.75,93.335c0.432,17.352,0.846,33.735-2.412,45.921c-2.988,11.216-11.286,24.698-20.054,38.953
		c-15.824,25.688-33.752,54.815-33.752,90.672c0,35.84,17.928,64.967,33.733,90.653c8.786,14.257,17.084,27.739,20.073,38.955
		c3.258,12.186,2.844,28.568,2.412,45.921c-0.738,29.701-1.585,63.345,15.769,93.354c17.569,30.367,47.36,46.497,73.643,60.716
		c15.066,8.155,29.287,15.86,37.891,24.464c8.606,8.604,16.292,22.825,24.445,37.874c14.221,26.281,30.351,56.074,60.737,73.679
		c29.971,17.352,63.67,16.506,93.335,15.75c17.371-0.413,33.752-0.846,45.921,2.412c11.233,3.007,24.715,11.288,38.972,20.071
		c25.688,15.805,54.813,33.735,90.653,33.735c35.858,0,64.965-17.93,90.653-33.735c14.275-8.783,27.739-17.063,38.972-20.071
		c12.187-3.276,28.549-2.861,45.921-2.412c29.756,0.776,63.364,1.585,93.335-15.75c30.386-17.586,46.515-47.379,60.754-73.679
		c8.136-15.067,15.841-29.287,24.409-37.874c8.604-8.587,22.825-16.292,37.893-24.428c26.3-14.239,56.091-30.367,73.679-60.752
		c17.333-29.99,16.506-63.636,15.769-93.337c-0.433-17.352-0.846-33.733,2.411-45.921c3.007-11.233,11.288-24.715,20.073-38.972
		c15.805-25.686,33.733-54.813,33.733-90.653C1150,574.787,1132.072,545.679,1116.267,519.991z"/>
	<path fill="#E5AF5A" d="M1091.451,498.72c-8.785-14.275-17.065-27.739-20.073-38.972c-3.257-12.186-2.844-28.568-2.411-45.921
		c0.738-29.701,1.584-63.345-15.769-93.354c-17.569-30.367-47.361-46.478-73.643-60.699c-15.067-8.153-29.287-15.858-37.893-24.464
		c-8.604-8.604-16.309-22.824-24.445-37.874c-14.239-26.299-30.368-56.11-60.754-73.679c-29.971-17.335-63.598-16.524-93.335-15.75
		c-17.371,0.414-33.769,0.863-45.903-2.412c-11.231-2.988-24.696-11.286-38.953-20.071c-25.686-15.824-54.813-33.752-90.689-33.752
		c-35.84,0-64.965,17.928-90.653,33.733c-14.257,8.785-27.739,17.084-38.955,20.071c-12.186,3.26-28.639,2.81-45.921,2.414
		c-29.629-0.793-63.345-1.585-93.352,15.767c-30.368,17.588-46.497,47.38-60.718,73.662c-8.155,15.067-15.858,29.27-24.445,37.874
		c-8.604,8.604-22.825,16.309-37.893,24.445c-26.281,14.238-56.091,30.368-73.679,60.754c-17.335,29.99-16.488,63.634-15.75,93.335
		c0.432,17.352,0.846,33.735-2.412,45.921c-2.988,11.216-11.286,24.698-20.054,38.953C67.928,524.389,50,553.516,50,589.373
		c0,35.84,17.928,64.967,33.733,90.653c8.786,14.257,17.084,27.739,20.073,38.955c3.258,12.185,2.844,28.568,2.412,45.921
		c-0.738,29.701-1.585,63.345,15.769,93.354c17.569,30.367,47.36,46.497,73.643,60.716c15.066,8.155,29.287,15.86,37.891,24.464
		c8.606,8.604,16.292,22.825,24.445,37.874c14.221,26.281,30.351,56.074,60.737,73.679c29.971,17.352,63.67,16.506,93.335,15.75
		c17.371-0.413,33.752-0.846,45.921,2.412c11.233,3.007,24.715,11.288,38.972,20.071c25.688,15.805,54.813,33.735,90.653,33.735
		c35.858,0,64.965-17.93,90.653-33.735c14.275-8.783,27.739-17.063,38.972-20.071c12.187-3.276,28.549-2.861,45.921-2.412
		c29.756,0.776,63.364,1.585,93.335-15.75c30.386-17.586,46.515-47.379,60.754-73.679c8.136-15.067,15.841-29.287,24.409-37.874
		c8.604-8.587,22.825-16.292,37.893-24.428c26.3-14.239,56.091-30.367,73.679-60.752c17.333-29.99,16.506-63.636,15.769-93.337
		c-0.433-17.352-0.846-33.733,2.411-45.921c3.007-11.233,11.288-24.715,20.073-38.972c15.805-25.686,33.733-54.813,33.733-90.653
		C1125.184,553.516,1107.256,524.408,1091.451,498.72z"/>
	<path fill="#F2C386" d="M1055.146,505.251c-8.152-13.246-15.836-25.741-18.626-36.164c-3.022-11.308-2.639-26.51-2.237-42.612
		c0.684-27.561,1.469-58.781-14.633-86.628c-16.303-28.179-43.949-43.129-68.337-56.325c-13.982-7.566-27.177-14.716-35.162-22.701
		c-7.984-7.984-15.134-21.179-22.684-35.145c-13.213-24.404-28.18-52.067-56.376-68.37c-27.812-16.086-59.016-15.333-86.61-14.615
		c-16.12,0.385-31.336,0.801-42.596-2.239c-10.422-2.773-22.917-10.473-36.147-18.625c-23.836-14.684-50.864-31.32-84.155-31.32
		c-33.257,0-60.284,16.637-84.121,31.303c-13.23,8.152-25.741,15.853-36.148,18.625c-11.308,3.025-26.575,2.607-42.612,2.24
		c-27.494-0.736-58.781-1.471-86.626,14.631c-28.18,16.321-43.146,43.966-56.343,68.354c-7.568,13.982-14.716,27.161-22.684,35.145
		c-7.984,7.984-21.181,15.134-35.162,22.684c-24.388,13.213-52.049,28.18-68.37,56.376c-16.086,27.829-15.3,59.049-14.615,86.61
		c0.4,16.102,0.785,31.304-2.239,42.612c-2.773,10.408-10.473,22.918-18.609,36.147c-14.684,23.837-31.32,50.866-31.32,84.139
		c0,33.257,16.637,60.286,31.303,84.121c8.153,13.23,15.853,25.741,18.626,36.148c3.024,11.308,2.639,26.51,2.239,42.612
		c-0.684,27.561-1.471,58.781,14.633,86.628c16.303,28.179,43.947,43.146,68.337,56.341c13.98,7.568,27.177,14.717,35.161,22.701
		c7.986,7.984,15.118,21.181,22.684,35.145c13.197,24.388,28.164,52.033,56.361,68.37c27.812,16.102,59.082,15.317,86.61,14.615
		c16.12-0.383,31.32-0.785,42.612,2.239c10.424,2.791,22.934,10.475,36.164,18.625c23.837,14.666,50.864,31.304,84.121,31.304
		c33.275,0,60.284-16.638,84.121-31.304c13.246-8.15,25.741-15.834,36.164-18.625c11.309-3.04,26.492-2.655,42.612-2.239
		c27.612,0.719,58.799,1.471,86.61-14.615c28.196-16.319,43.164-43.965,56.376-68.37c7.55-13.982,14.7-27.177,22.65-35.145
		c7.984-7.968,21.181-15.118,35.162-22.668c24.405-13.213,52.049-28.179,68.37-56.375c16.085-27.829,15.317-59.051,14.633-86.612
		c-0.402-16.102-0.785-31.303,2.237-42.612c2.791-10.424,10.475-22.934,18.626-36.164c14.666-23.836,31.303-50.864,31.303-84.121
		C1086.449,556.099,1069.812,529.089,1055.146,505.251z"/>
	<g>
		<defs>
			<path id="SVGID_1_" d="M773.704,645.388h-15.57c-1.577,0-2.939,1.106-3.262,2.653c-2.937,14.055-4.966,28.965-15.556,39.576
				c-10.404,10.425-25.695,15.079-39.63,9.268c-21.045-8.776-26.75-34.074-27.956-54.523c-0.238-4.031-0.328-8.068-0.356-12.105
				c-0.138-19.864,0.753-39.678,2.065-59.494c1.706-25.758,3.168-51.576,4.834-77.356c0.4-6.194,0.899-12.38,1.378-18.57h87.379
				c1.839,0,3.332-1.492,3.332-3.332c0,0,0-58.746,0-62.283c0-1.839-1.493-3.332-3.332-3.332h-6.139
				c-5.872,0.086-6.466-0.033-11.391,0c-26.105,0-52.211,0-78.316,0c-26.102,0-52.228,0.201-78.314,0.075
				c-18.169-0.088-36.338-0.177-54.508-0.265c-12.906-0.063-25.834-0.125-38.708,0.923c-10.885,0.886-22.127,3.991-32.179,8.239
				c-17.608,7.44-31.734,20.61-41.554,36.932c-12.158,20.208-19.462,43.958-27.569,66.015c-0.575,1.564,0.097,3.313,1.569,4.091
				c0,0,12.594,6.657,12.608,6.664c1.767,0.935,4.189,0.034,4.769-2.062c5.592-20.188,15.732-39.896,36.773-46.88
				c15.281-5.072,31.887-4.131,47.751-4.07c0.332,0.001,0.658,0.005,0.983,0.007c-0.017,0-2.327,27.19-2.499,28.865
				c-2.644,25.672-4.856,51.375-7.859,77.008c-1.422,12.138-2.736,24.3-4.851,36.342c-2.1,11.959-5.33,23.379-9.429,34.76
				c-3.975,11.036-10.969,19.918-18.818,28.495c-6.061,6.624-12.344,13.086-17.614,20.355
				c-8.659,11.944-14.617,26.944-10.578,41.743c4.784,17.53,21.88,29.761,39.846,29.929c19.049,0.179,34.91-13.571,43.591-29.561
				c10.883-20.045,12.327-43.402,15.105-65.59c1.297-10.364,2.246-20.832,3.864-31.15c4.007-25.558,6.281-51.513,9.392-77.197
				c3.14-25.92,6.238-51.845,9.332-77.77c0.266-2.227,0.531-4.455,0.797-6.682c0.378-3.176,0.756-6.352,1.135-9.528
				c24.177,0,48.354,0,72.53,0c0.311,0,0.623,0,0.934,0c-0.833,0-4.643,52.154-4.978,55.63c-2.484,25.819-4.125,51.749-5.99,77.62
				c-0.368,5.106-0.716,10.214-1.041,15.323c-1.181,18.704-2.827,37.625-0.632,56.315c2.638,22.46,10.779,45.298,25.174,62.954
				c4.263,5.229,9.125,9.98,14.557,13.989c0.43,0.318,0.864,0.63,1.301,0.938c15.892,11.202,36.624,15.329,55.3,9.35
				c18.733-5.997,33.569-20.444,43.34-37.161c0.05-0.086,0.1-0.172,0.151-0.258c14.156-24.381,20.07-53.461,22.162-81.309
				C777.163,647.168,775.669,645.388,773.704,645.388z"/>
		</defs>
		<clipPath id="SVGID_2_">
			<use xlink:href="#SVGID_1_"  overflow="visible"/>
		</clipPath>
		<path clip-path="url(#SVGID_2_)" fill="#B88C48" d="M773.704,645.388h-15.57c-1.577,0-2.939,1.106-3.262,2.653
			c-2.937,14.055-4.966,28.965-15.556,39.576c-10.404,10.425-25.695,15.079-39.63,9.268c-21.045-8.776-26.75-34.074-27.956-54.523
			c-0.238-4.031-0.328-8.068-0.356-12.105c-0.138-19.864,0.753-39.678,2.065-59.494c1.706-25.758,3.168-51.576,4.834-77.356
			c0.4-6.194,0.899-12.38,1.378-18.57h87.379c1.839,0,3.332-1.492,3.332-3.332c0,0,0-58.746,0-62.283
			c0-1.839-1.493-3.332-3.332-3.332h-6.139c-5.872,0.086-6.466-0.033-11.391,0c-26.105,0-52.211,0-78.316,0
			c-26.102,0-52.228,0.201-78.314,0.075c-18.169-0.088-36.338-0.177-54.508-0.265c-12.906-0.063-25.834-0.125-38.708,0.923
			c-10.885,0.886-22.127,3.991-32.179,8.239c-17.608,7.44-31.734,20.61-41.554,36.932c-12.158,20.208-19.462,43.958-27.569,66.015
			c-0.575,1.564,0.097,3.313,1.569,4.091c0,0,12.594,6.657,12.608,6.664c1.767,0.935,4.189,0.034,4.769-2.062
			c5.592-20.188,15.732-39.896,36.773-46.88c15.281-5.072,31.887-4.131,47.751-4.07c0.332,0.001,0.658,0.005,0.983,0.007
			c-0.017,0-2.327,27.19-2.499,28.865c-2.644,25.672-4.856,51.375-7.859,77.008c-1.422,12.138-2.736,24.3-4.851,36.342
			c-2.1,11.959-5.33,23.379-9.429,34.76c-3.975,11.036-10.969,19.918-18.818,28.495c-6.061,6.624-12.344,13.086-17.614,20.355
			c-8.659,11.944-14.617,26.944-10.578,41.743c4.784,17.53,21.88,29.761,39.846,29.929c19.049,0.179,34.91-13.571,43.591-29.561
			c10.883-20.045,12.327-43.402,15.105-65.59c1.297-10.364,2.246-20.832,3.864-31.15c4.007-25.558,6.281-51.513,9.392-77.197
			c3.14-25.92,6.238-51.845,9.332-77.77c0.266-2.227,0.531-4.455,0.797-6.682c0.378-3.176,0.756-6.352,1.135-9.528
			c24.177,0,48.354,0,72.53,0c0.311,0,0.623,0,0.934,0c-0.833,0-4.643,52.154-4.978,55.63c-2.484,25.819-4.125,51.749-5.99,77.62
			c-0.368,5.106-0.716,10.214-1.041,15.323c-1.181,18.704-2.827,37.625-0.632,56.315c2.638,22.46,10.779,45.298,25.174,62.954
			c4.263,5.229,9.125,9.98,14.557,13.989c0.43,0.318,0.864,0.63,1.301,0.938c15.892,11.202,36.624,15.329,55.3,9.35
			c18.733-5.997,33.569-20.444,43.34-37.161c0.05-0.086,0.1-0.172,0.151-0.258c14.156-24.381,20.07-53.461,22.162-81.309
			C777.163,647.168,775.669,645.388,773.704,645.388z"/>
		<path clip-path="url(#SVGID_2_)" fill="#8C0403" d="M787.49,659.617l-8.146-24.551c-1.596,0-29.282-1.94-29.609-0.375
			c-2.973,14.223-5.025,29.74-15.742,40.479c-10.529,10.55-6.513,21.997-20.614,16.117c-21.297-8.881-27.866-14.037-29.087-34.732
			c-0.241-4.079-0.332-8.165-0.36-12.251c-0.14-20.103,0.762-40.155,2.09-60.208c1.726-26.068,3.206-52.195,4.892-78.285
			c0.405-6.269,0.91-12.528,1.395-18.793h88.428c1.861,0,3.372-1.51,3.372-3.372c0,0,0-59.451,0-63.031
			c0-1.861-1.511-3.372-3.372-3.372h-6.213c-5.942,0.087-6.544-0.034-11.527,0c-26.419,0-52.838,0-79.257,0
			c-26.416,0-52.855,0.204-79.254,0.076c-18.387-0.089-36.775-0.179-55.162-0.268c-13.061-0.063-26.144-0.127-39.172,0.934
			c-11.016,0.897-22.392,4.039-32.565,8.338c-17.819,7.529-32.115,20.857-42.053,37.376c-12.304,20.451-19.696,44.485-27.9,66.808
			c-0.582,1.583,0.098,3.352,1.588,4.14c0,0,12.745,6.737,12.76,6.744c1.788,0.946,4.239,0.034,4.827-2.086
			c5.659-20.431,15.921-40.375,37.215-47.443c7.911-2.626,27.852-11.601,38.785-16.302c11.891,0.051,11.557,0.055,11.557,0.055
			s0.027-0.321-1.023,12.135c-0.017,0-2.355,27.516-2.529,29.212c-2.675,25.98-4.914,51.992-7.954,77.933
			c-1.44,12.284-2.769,24.592-4.909,36.778c-2.126,12.103-5.394,23.66-9.543,35.178c-4.023,11.169-11.101,20.157-19.044,28.837
			c-6.134,6.703-12.492,13.243-17.825,20.599c-8.763,12.088-14.792,27.267-10.705,42.244c4.842,17.74,22.143,30.118,40.324,30.288
			c19.278,0.181,35.329-13.734,44.114-29.916c11.014-20.286,12.475-43.923,15.286-66.377c1.313-10.488,2.273-21.083,3.91-31.524
			c4.055-25.865,6.356-52.131,9.504-78.124c3.177-26.231,6.313-52.467,9.444-78.704c0.269-2.254,0.538-4.508,0.806-6.762
			c0.383-3.214,0.766-6.429,1.148-9.643c24.467,0,37.846-12.19,62.313-12.19c0.315,0,11.855-0.087,13.062-0.095
			c-0.156,1.688-5.727,65.066-6.066,68.583c-2.514,26.129-4.175,52.371-6.062,78.551c-0.373,5.168-0.725,10.336-1.053,15.507
			c-1.195,18.928-2.861,38.076-0.639,56.992c2.669,22.73,10.908,45.842,25.476,63.71c4.315,5.292,9.235,10.1,14.732,14.157
			c0.435,0.321,0.874,0.638,1.316,0.949c16.083,11.336,37.064,15.513,55.964,9.462c18.958-6.069,33.972-20.69,43.86-37.607
			c0.051-0.087,0.102-0.174,0.152-0.261c14.326-24.674,20.311-54.103,22.428-82.285C790.991,661.419,789.479,659.617,787.49,659.617
			z"/>
	</g>
	<g>
		<path fill="#B88C48" d="M614.938,225.046c-1.424-12.095-12.132-18.537-21.672-17.451c-9.54-1.086-20.248,5.356-21.672,17.451
			c-0.499,4.243-0.011,8.562,0.653,12.774c3.32,21.068,10.94,40.748,18.906,60.021c0.563,1.36,1.956,4.709,2.162,4.962
			c0.166-0.281,1.936-4.65,2.065-4.962c7.966-19.273,15.585-38.953,18.906-60.021C614.948,233.608,615.437,229.289,614.938,225.046z
			"/>
		<path fill="#B88C48" d="M571.594,963.612c1.424,12.095,12.132,18.537,21.672,17.451c9.54,1.086,20.248-5.356,21.672-17.451
			c0.499-4.243,0.011-8.562-0.653-12.774c-3.32-21.068-10.94-40.748-18.906-60.021c-0.563-1.36-1.956-4.709-2.162-4.963
			c-0.166,0.281-1.936,4.65-2.065,4.963c-7.966,19.273-15.585,38.953-18.906,60.021C571.583,955.05,571.095,959.369,571.594,963.612
			z"/>
		<path fill="#B88C48" d="M223.983,572.657c-12.095,1.424-18.537,12.132-17.451,21.672c-1.086,9.54,5.356,20.248,17.451,21.672
			c4.243,0.499,8.562,0.011,12.774-0.653c21.068-3.32,40.748-10.94,60.021-18.906c1.36-0.563,4.709-1.956,4.963-2.162
			c-0.281-0.166-4.65-1.936-4.963-2.065c-19.273-7.966-38.953-15.585-60.021-18.906
			C232.545,572.647,228.226,572.158,223.983,572.657z"/>
		<path fill="#B88C48" d="M962.549,616.001c12.095-1.424,18.537-12.132,17.451-21.672c1.086-9.54-5.356-20.248-17.451-21.672
			c-4.243-0.499-8.562-0.011-12.774,0.653c-21.068,3.32-40.748,10.94-60.021,18.906c-1.36,0.563-4.709,1.956-4.963,2.162
			c0.281,0.166,4.65,1.936,4.963,2.065c19.273,7.966,38.953,15.585,60.021,18.906C953.987,616.012,958.306,616.5,962.549,616.001z"
			/>
		<path fill="#B88C48" d="M316.819,840.127c-7.546,9.559-4.529,21.686,2.985,27.664c5.978,7.513,18.105,10.53,27.664,2.985
			c3.353-2.648,6.062-6.047,8.571-9.494c12.549-17.245,21.077-36.548,29.073-55.809c0.564-1.36,1.947-4.713,1.98-5.038
			c-0.316,0.082-4.657,1.919-4.969,2.049c-19.261,7.995-38.564,16.523-55.809,29.073
			C322.866,834.065,319.467,836.774,316.819,840.127z"/>
		<path fill="#B88C48" d="M869.713,348.531c7.546-9.559,4.529-21.686-2.985-27.664c-5.978-7.513-18.105-10.53-27.664-2.985
			c-3.353,2.648-6.062,6.047-8.571,9.494c-12.549,17.245-21.077,36.548-29.073,55.809c-0.564,1.36-1.947,4.713-1.98,5.038
			c0.316-0.082,4.657-1.919,4.969-2.049c19.261-7.995,38.564-16.523,55.809-29.073C863.666,354.593,867.065,351.884,869.713,348.531
			z"/>
		<path fill="#B88C48" d="M347.468,317.882c-9.559-7.546-21.686-4.529-27.664,2.985c-7.513,5.978-10.53,18.105-2.985,27.664
			c2.648,3.353,6.047,6.062,9.494,8.571c17.245,12.55,36.548,21.077,55.809,29.073c1.36,0.564,4.713,1.947,5.038,1.98
			c-0.082-0.316-1.919-4.657-2.049-4.969c-7.995-19.261-16.523-38.564-29.073-55.809C353.53,323.929,350.821,320.53,347.468,317.882
			z"/>
		<path fill="#B88C48" d="M839.064,870.776c9.559,7.546,21.686,4.529,27.664-2.985c7.513-5.978,10.53-18.105,2.985-27.664
			c-2.648-3.353-6.047-6.062-9.494-8.571c-17.245-12.549-36.548-21.077-55.809-29.073c-1.36-0.564-4.713-1.947-5.038-1.98
			c0.082,0.316,1.919,4.657,2.049,4.969c7.995,19.261,16.523,38.564,29.073,55.809C833.002,864.729,835.711,868.128,839.064,870.776
			z"/>
	</g>
	<g>
		<path fill="#E5AF5A" d="M609.264,220.082c-1.424-12.095-12.132-18.537-21.672-17.451c-9.54-1.086-20.248,5.356-21.672,17.451
			c-0.499,4.243-0.011,8.562,0.653,12.774c3.32,21.068,10.94,40.748,18.906,60.021c0.563,1.36,1.956,4.709,2.162,4.962
			c0.166-0.281,1.936-4.65,2.065-4.962c7.966-19.273,15.585-38.953,18.906-60.021C609.275,228.644,609.763,224.325,609.264,220.082z
			"/>
		<path fill="#E5AF5A" d="M565.92,958.648c1.424,12.095,12.132,18.537,21.672,17.451c9.54,1.086,20.248-5.356,21.672-17.451
			c0.499-4.243,0.011-8.562-0.653-12.774c-3.32-21.068-10.94-40.748-18.906-60.021c-0.563-1.36-1.956-4.709-2.162-4.963
			c-0.166,0.281-1.936,4.65-2.065,4.963c-7.966,19.273-15.585,38.953-18.906,60.021C565.909,950.085,565.421,954.404,565.92,958.648
			z"/>
		<path fill="#E5AF5A" d="M218.309,567.693c-12.095,1.424-18.537,12.132-17.451,21.672c-1.086,9.54,5.356,20.248,17.451,21.672
			c4.243,0.499,8.562,0.011,12.774-0.653c21.068-3.32,40.748-10.94,60.021-18.906c1.36-0.563,4.709-1.956,4.962-2.162
			c-0.281-0.166-4.65-1.936-4.962-2.065c-19.273-7.966-38.953-15.585-60.021-18.906
			C226.871,567.682,222.552,567.194,218.309,567.693z"/>
		<path fill="#E5AF5A" d="M956.875,611.036c12.095-1.424,18.537-12.132,17.451-21.672c1.086-9.54-5.356-20.248-17.451-21.672
			c-4.243-0.499-8.562-0.011-12.774,0.653c-21.068,3.32-40.748,10.94-60.021,18.906c-1.36,0.563-4.709,1.956-4.963,2.162
			c0.281,0.166,4.65,1.936,4.963,2.065c19.273,7.966,38.953,15.585,60.021,18.906C948.313,611.047,952.632,611.535,956.875,611.036z
			"/>
		<path fill="#E5AF5A" d="M311.145,835.163c-7.546,9.559-4.529,21.686,2.985,27.664c5.978,7.513,18.105,10.53,27.664,2.985
			c3.353-2.648,6.062-6.047,8.571-9.494c12.549-17.245,21.077-36.548,29.073-55.809c0.564-1.36,1.947-4.713,1.98-5.038
			c-0.316,0.082-4.657,1.919-4.969,2.049c-19.261,7.995-38.564,16.523-55.809,29.073
			C317.192,829.101,313.793,831.809,311.145,835.163z"/>
		<path fill="#E5AF5A" d="M864.039,343.566c7.546-9.559,4.529-21.686-2.985-27.664c-5.978-7.513-18.105-10.53-27.664-2.985
			c-3.353,2.648-6.062,6.047-8.571,9.494c-12.549,17.245-21.077,36.548-29.073,55.809c-0.564,1.36-1.947,4.713-1.98,5.038
			c0.316-0.082,4.657-1.919,4.969-2.049c19.261-7.995,38.564-16.523,55.81-29.073C857.992,349.628,861.391,346.92,864.039,343.566z"
			/>
		<path fill="#E5AF5A" d="M341.794,312.918c-9.559-7.546-21.686-4.529-27.664,2.985c-7.513,5.978-10.53,18.105-2.985,27.664
			c2.648,3.353,6.047,6.062,9.494,8.571c17.245,12.55,36.549,21.077,55.809,29.073c1.36,0.564,4.713,1.947,5.038,1.98
			c-0.081-0.316-1.919-4.657-2.049-4.969c-7.995-19.261-16.523-38.564-29.073-55.809
			C347.856,318.965,345.147,315.565,341.794,312.918z"/>
		<path fill="#E5AF5A" d="M833.39,865.811c9.559,7.546,21.686,4.529,27.664-2.985c7.513-5.978,10.53-18.105,2.985-27.664
			c-2.648-3.353-6.047-6.062-9.494-8.571c-17.245-12.549-36.549-21.077-55.81-29.073c-1.36-0.564-4.713-1.947-5.038-1.98
			c0.081,0.316,1.919,4.657,2.049,4.969c7.995,19.261,16.523,38.564,29.073,55.809C827.328,859.765,830.037,863.164,833.39,865.811z
			"/>
	</g>
	<path opacity="0.1" fill="#272728" d="M1091.385,498.72c-8.801-14.275-17.098-27.739-20.112-38.973
		c-3.262-12.185-2.849-28.568-2.415-45.921c0.739-29.7,1.586-63.344-15.799-93.354c-17.603-30.366-47.454-46.478-73.786-60.699
		c-15.096-8.153-29.344-15.858-37.966-24.463c-8.621-8.604-16.34-22.824-24.493-37.873c-14.266-26.299-30.427-56.11-60.872-73.679
		c-30.03-17.335-63.721-16.524-93.516-15.75c-17.405,0.415-33.835,0.863-45.993-2.412c-11.252-2.988-24.744-11.287-39.028-20.071
		c-25.485-15.669-54.36-33.375-89.822-33.72v1075.12c35.445-0.346,64.3-18.053,89.786-33.703
		c14.302-8.783,27.793-17.064,39.048-20.071c12.211-3.276,28.605-2.861,46.01-2.412c29.814,0.775,63.486,1.585,93.516-15.75
		c30.445-17.587,46.606-47.378,60.872-73.679c8.152-15.067,15.872-29.287,24.456-37.873c8.62-8.587,22.869-16.291,37.966-24.428
		c26.352-14.238,56.199-30.366,73.822-60.752c17.367-29.99,16.538-63.636,15.799-93.336c-0.434-17.353-0.847-33.733,2.415-45.921
		c3.014-11.234,11.311-24.715,20.112-38.973c15.836-25.686,33.799-54.814,33.799-90.653
		C1125.184,553.516,1107.221,524.408,1091.385,498.72z"/>
</g>
</svg>
